<svg width="24" height="24" viewBox="0 0 24 24" fill="none" xmlns="http://www.w3.org/2000/svg">
<rect x="4" y="4" width="16" height="16" rx="8" fill="#EF0B0B"/>
<path d="M11.9945 17C12.5628 17 13 16.5625 13 16C13 15.4271 12.5628 15 11.9945 15C11.4262 15 11 15.4271 11 16C11 16.5625 11.4262 17 11.9945 17Z" fill="white"/>
<path d="M12.9324 8.91535L12.6848 13.3524C12.6645 13.7157 12.3639 14 12 14C11.6361 14 11.3355 13.7157 11.3152 13.3524L11.0676 8.91535L11.0353 7.99938C11.016 7.45323 11.4535 7 12 7C12.5465 7 12.984 7.45323 12.9647 7.99938L12.9324 8.91535Z" fill="white"/>
</svg>
